<svg xmlns="http://www.w3.org/2000/svg" xmlns:xlink="http://www.w3.org/1999/xlink" viewBox="0 0 82.42 72.16"><defs><style>.cls-1{isolation:isolate;}.cls-2{opacity:0.3;mix-blend-mode:multiply;}.cls-3{opacity:0;fill:url(#linear-gradient);}.cls-4{opacity:0.04;fill:url(#linear-gradient-2);}.cls-5{opacity:0.08;fill:url(#linear-gradient-3);}.cls-6{opacity:0.12;fill:url(#linear-gradient-4);}.cls-7{opacity:0.15;fill:url(#linear-gradient-5);}.cls-8{opacity:0.19;fill:url(#linear-gradient-6);}.cls-9{opacity:0.23;fill:url(#linear-gradient-7);}.cls-10{opacity:0.27;fill:url(#linear-gradient-8);}.cls-11{opacity:0.31;fill:url(#linear-gradient-9);}.cls-12{opacity:0.35;fill:url(#linear-gradient-10);}.cls-13{opacity:0.38;fill:url(#linear-gradient-11);}.cls-14{opacity:0.42;fill:url(#linear-gradient-12);}.cls-15{opacity:0.46;fill:url(#linear-gradient-13);}.cls-16{opacity:0.5;fill:url(#linear-gradient-14);}.cls-17{opacity:0.54;fill:url(#linear-gradient-15);}.cls-18{opacity:0.58;fill:url(#linear-gradient-16);}.cls-19{opacity:0.62;fill:url(#linear-gradient-17);}.cls-20{opacity:0.65;fill:url(#linear-gradient-18);}.cls-21{opacity:0.69;fill:url(#linear-gradient-19);}.cls-22{opacity:0.73;fill:url(#linear-gradient-20);}.cls-23{opacity:0.77;fill:url(#linear-gradient-21);}.cls-24{opacity:0.81;fill:url(#linear-gradient-22);}.cls-25{opacity:0.85;fill:url(#linear-gradient-23);}.cls-26{opacity:0.88;fill:url(#linear-gradient-24);}.cls-27{opacity:0.92;fill:url(#linear-gradient-25);}.cls-28{opacity:0.96;fill:url(#linear-gradient-26);}.cls-29{fill:#5d5d5d;}.cls-30{fill:url(#linear-gradient-27);}.cls-31{fill:#fff;opacity:0.4;mix-blend-mode:screen;}.cls-32{opacity:0.8;}.cls-33{fill:url(#åçûìßííûé_ãðàäèåíò_380);}.cls-34{fill:url(#åçûìßííûé_ãðàäèåíò_2127);}</style><linearGradient id="linear-gradient" y1="37.5" x2="82.42" y2="37.5" gradientUnits="userSpaceOnUse"><stop offset="0" stop-color="#eee"/><stop offset="0.42" stop-color="#fff"/><stop offset="0.97" stop-color="#f6f6f6"/></linearGradient><linearGradient id="linear-gradient-2" x1="0.15" y1="37.42" x2="82.37" y2="37.42" gradientUnits="userSpaceOnUse"><stop offset="0" stop-color="#e8e8e8"/><stop offset="0.42" stop-color="#f9f9f9"/><stop offset="0.97" stop-color="#f0f0f0"/></linearGradient><linearGradient id="linear-gradient-3" x1="0.31" y1="37.33" x2="82.32" y2="37.33" gradientUnits="userSpaceOnUse"><stop offset="0" stop-color="#e3e3e3"/><stop offset="0.42" stop-color="#f3f3f3"/><stop offset="0.97" stop-color="#eaeaea"/></linearGradient><linearGradient id="linear-gradient-4" x1="0.46" y1="37.25" x2="82.26" y2="37.25" gradientUnits="userSpaceOnUse"><stop offset="0" stop-color="#ddd"/><stop offset="0.42" stop-color="#ececec"/><stop offset="0.97" stop-color="#e4e4e4"/></linearGradient><linearGradient id="linear-gradient-5" x1="0.62" y1="37.17" x2="82.21" y2="37.17" gradientUnits="userSpaceOnUse"><stop offset="0" stop-color="#d8d8d8"/><stop offset="0.42" stop-color="#e6e6e6"/><stop offset="0.97" stop-color="#dedede"/></linearGradient><linearGradient id="linear-gradient-6" x1="0.77" y1="37.08" x2="82.16" y2="37.08" gradientUnits="userSpaceOnUse"><stop offset="0" stop-color="#d2d2d2"/><stop offset="0.42" stop-color="#e0e0e0"/><stop offset="0.97" stop-color="#d9d9d9"/></linearGradient><linearGradient id="linear-gradient-7" x1="0.93" y1="37" x2="82.1" y2="37" gradientUnits="userSpaceOnUse"><stop offset="0" stop-color="#cdcdcd"/><stop offset="0.42" stop-color="#dadada"/><stop offset="0.97" stop-color="#d3d3d3"/></linearGradient><linearGradient id="linear-gradient-8" x1="1.08" y1="36.91" x2="82.05" y2="36.91" gradientUnits="userSpaceOnUse"><stop offset="0" stop-color="#c7c7c7"/><stop offset="0.42" stop-color="#d3d3d3"/><stop offset="0.97" stop-color="#cdcdcd"/></linearGradient><linearGradient id="linear-gradient-9" x1="1.24" y1="36.83" x2="82" y2="36.83" gradientUnits="userSpaceOnUse"><stop offset="0" stop-color="#c1c1c1"/><stop offset="0.42" stop-color="#cdcdcd"/><stop offset="0.97" stop-color="#c7c7c7"/></linearGradient><linearGradient id="linear-gradient-10" x1="1.39" y1="36.74" x2="81.94" y2="36.74" gradientUnits="userSpaceOnUse"><stop offset="0" stop-color="#bcbcbc"/><stop offset="0.42" stop-color="#c7c7c7"/><stop offset="0.97" stop-color="#c1c1c1"/></linearGradient><linearGradient id="linear-gradient-11" x1="1.55" y1="36.66" x2="81.89" y2="36.66" gradientUnits="userSpaceOnUse"><stop offset="0" stop-color="#b6b6b6"/><stop offset="0.42" stop-color="#c1c1c1"/><stop offset="0.97" stop-color="#bbb"/></linearGradient><linearGradient id="linear-gradient-12" x1="1.7" y1="36.58" x2="81.84" y2="36.58" gradientUnits="userSpaceOnUse"><stop offset="0" stop-color="#b1b1b1"/><stop offset="0.42" stop-color="#bababa"/><stop offset="0.97" stop-color="#b5b5b5"/></linearGradient><linearGradient id="linear-gradient-13" x1="1.86" y1="36.49" x2="81.78" y2="36.49" gradientUnits="userSpaceOnUse"><stop offset="0" stop-color="#ababab"/><stop offset="0.42" stop-color="#b4b4b4"/><stop offset="0.97" stop-color="#afafaf"/></linearGradient><linearGradient id="linear-gradient-14" x1="2.01" y1="36.41" x2="81.73" y2="36.41" gradientUnits="userSpaceOnUse"><stop offset="0" stop-color="#a6a6a6"/><stop offset="0.42" stop-color="#aeaeae"/><stop offset="0.97" stop-color="#aaa"/></linearGradient><linearGradient id="linear-gradient-15" x1="2.17" y1="36.32" x2="81.68" y2="36.32" gradientUnits="userSpaceOnUse"><stop offset="0" stop-color="#a0a0a0"/><stop offset="0.42" stop-color="#a8a8a8"/><stop offset="0.97" stop-color="#a4a4a4"/></linearGradient><linearGradient id="linear-gradient-16" x1="2.32" y1="36.24" x2="81.62" y2="36.24" gradientUnits="userSpaceOnUse"><stop offset="0" stop-color="#9a9a9a"/><stop offset="0.42" stop-color="#a2a2a2"/><stop offset="0.97" stop-color="#9e9e9e"/></linearGradient><linearGradient id="linear-gradient-17" x1="2.48" y1="36.16" x2="81.57" y2="36.16" gradientUnits="userSpaceOnUse"><stop offset="0" stop-color="#959595"/><stop offset="0.42" stop-color="#9b9b9b"/><stop offset="0.97" stop-color="#989898"/></linearGradient><linearGradient id="linear-gradient-18" x1="2.63" y1="36.07" x2="81.52" y2="36.07" gradientUnits="userSpaceOnUse"><stop offset="0" stop-color="#8f8f8f"/><stop offset="0.42" stop-color="#959595"/><stop offset="0.97" stop-color="#929292"/></linearGradient><linearGradient id="linear-gradient-19" x1="2.79" y1="35.99" x2="81.46" y2="35.99" gradientUnits="userSpaceOnUse"><stop offset="0" stop-color="#8a8a8a"/><stop offset="0.42" stop-color="#8f8f8f"/><stop offset="0.97" stop-color="#8c8c8c"/></linearGradient><linearGradient id="linear-gradient-20" x1="2.94" y1="35.9" x2="81.41" y2="35.9" gradientUnits="userSpaceOnUse"><stop offset="0" stop-color="#848484"/><stop offset="0.42" stop-color="#898989"/><stop offset="0.97" stop-color="#868686"/></linearGradient><linearGradient id="linear-gradient-21" x1="3.09" y1="35.82" x2="81.36" y2="35.82" gradientUnits="userSpaceOnUse"><stop offset="0" stop-color="#7e7e7e"/><stop offset="0.42" stop-color="#828282"/><stop offset="0.97" stop-color="gray"/></linearGradient><linearGradient id="linear-gradient-22" x1="3.25" y1="35.73" x2="81.3" y2="35.73" gradientUnits="userSpaceOnUse"><stop offset="0" stop-color="#797979"/><stop offset="0.42" stop-color="#7c7c7c"/><stop offset="0.97" stop-color="#7a7a7a"/></linearGradient><linearGradient id="linear-gradient-23" x1="3.4" y1="35.65" x2="81.25" y2="35.65" gradientUnits="userSpaceOnUse"><stop offset="0" stop-color="#737373"/><stop offset="0.42" stop-color="#767676"/><stop offset="0.97" stop-color="#757575"/></linearGradient><linearGradient id="linear-gradient-24" x1="3.56" y1="35.57" x2="81.2" y2="35.57" gradientUnits="userSpaceOnUse"><stop offset="0" stop-color="#6e6e6e"/><stop offset="0.42" stop-color="#707070"/><stop offset="0.97" stop-color="#6f6f6f"/></linearGradient><linearGradient id="linear-gradient-25" x1="3.71" y1="35.48" x2="81.14" y2="35.48" gradientUnits="userSpaceOnUse"><stop offset="0" stop-color="#686868"/><stop offset="0.42" stop-color="#696969"/><stop offset="0.97" stop-color="#696969"/></linearGradient><linearGradient id="linear-gradient-26" x1="3.87" y1="35.4" x2="81.09" y2="35.4" gradientUnits="userSpaceOnUse"><stop offset="0" stop-color="#636363"/><stop offset="0.42" stop-color="#636363"/><stop offset="0.97" stop-color="#636363"/></linearGradient><linearGradient id="linear-gradient-27" x1="43.22" y1="-11.1" x2="43.22" y2="68.56" xlink:href="#linear-gradient"/><linearGradient id="åçûìßííûé_ãðàäèåíò_380" x1="-325.41" y1="46.52" x2="-317.9" y2="113.33" gradientTransform="matrix(0.36, -0.66, 0.31, 0.75, 139.87, -260.43)" gradientUnits="userSpaceOnUse"><stop offset="0" stop-color="#dfff6b"/><stop offset="0.54" stop-color="#c6e35f"/><stop offset="1" stop-color="#d9f868"/></linearGradient><linearGradient id="åçûìßííûé_ãðàäèåíò_2127" x1="25.59" y1="3.57" x2="64.15" y2="3.57" gradientUnits="userSpaceOnUse"><stop offset="0" stop-color="#eaff9b"/><stop offset="0.13" stop-color="#efffb4"/><stop offset="0.31" stop-color="#dfff6b"/><stop offset="0.76" stop-color="#c1dd5d"/></linearGradient></defs><g class="cls-1"><g id="_ëîé_1" data-name="‘ëîé_1"><g class="cls-2"><polygon class="cls-3" points="76.38 2.85 76.38 5.97 78.12 5.97 78.12 9.48 73.69 9.48 73.69 5.97 75.43 5.97 75.43 2.85 68.63 2.85 68.63 5.97 70.37 5.97 70.37 9.48 65.94 9.48 65.94 5.97 67.68 5.97 67.68 2.85 60.88 2.85 60.88 5.97 62.62 5.97 62.62 9.48 58.19 9.48 58.19 5.97 59.93 5.97 59.93 2.85 53.13 2.85 53.13 5.97 54.87 5.97 54.87 9.48 50.44 9.48 50.44 5.97 52.18 5.97 52.18 2.85 45.38 2.85 45.38 5.97 47.12 5.97 47.12 9.48 42.69 9.48 42.69 5.97 44.42 5.97 44.42 2.85 37.63 2.85 37.63 5.97 39.37 5.97 39.37 9.48 34.94 9.48 34.94 5.97 36.67 5.97 36.67 2.85 29.88 2.85 29.88 5.97 31.62 5.97 31.62 9.48 27.19 9.48 27.19 5.97 28.93 5.97 28.93 2.85 22.13 2.85 22.13 5.97 23.87 5.97 23.87 9.48 19.44 9.48 19.44 5.97 21.18 5.97 21.18 2.85 14.38 2.85 14.38 5.97 16.12 5.97 16.12 9.48 11.69 9.48 11.69 5.97 13.43 5.97 13.43 2.85 6.63 2.85 6.63 5.97 8.37 5.97 8.37 9.48 3.94 9.48 3.94 5.97 5.67 5.97 5.67 2.85 0 2.85 0 72.16 82.42 72.16 82.42 2.85 76.38 2.85"/><polygon class="cls-4" points="76.34 2.85 76.34 5.96 78.08 5.96 78.08 9.47 73.66 9.47 73.66 5.96 75.39 5.96 75.39 2.85 68.61 2.85 68.61 5.96 70.34 5.96 70.34 9.47 65.93 9.47 65.93 5.96 67.66 5.96 67.66 2.85 60.88 2.85 60.88 5.96 62.62 5.96 62.62 9.47 58.2 9.47 58.2 5.96 59.93 5.96 59.93 2.85 53.15 2.85 53.15 5.96 54.88 5.96 54.88 9.47 50.47 9.47 50.47 5.96 52.2 5.96 52.2 2.85 45.42 2.85 45.42 5.96 47.15 5.96 47.15 9.47 42.73 9.47 42.73 5.96 44.47 5.96 44.47 2.85 37.69 2.85 37.69 5.96 39.42 5.96 39.42 9.47 35 9.47 35 5.96 36.74 5.96 36.74 2.85 29.96 2.85 29.96 5.96 31.69 5.96 31.69 9.47 27.27 9.47 27.27 5.96 29.01 5.96 29.01 2.85 22.23 2.85 22.23 5.96 23.96 5.96 23.96 9.47 19.54 9.47 19.54 5.96 21.28 5.96 21.28 2.85 14.5 2.85 14.5 5.96 16.23 5.96 16.23 9.47 11.81 9.47 11.81 5.96 13.55 5.96 13.55 2.85 6.76 2.85 6.76 5.96 8.5 5.96 8.5 9.47 4.08 9.47 4.08 5.96 5.81 5.96 5.81 2.85 0.15 2.85 0.15 71.99 82.37 71.99 82.37 2.85 76.34 2.85"/><polygon class="cls-5" points="76.31 2.85 76.31 5.95 78.03 5.95 78.03 9.45 73.63 9.45 73.63 5.95 75.36 5.95 75.36 2.85 68.59 2.85 68.59 5.95 70.32 5.95 70.32 9.45 65.92 9.45 65.92 5.95 67.64 5.95 67.64 2.85 60.88 2.85 60.88 5.95 62.61 5.95 62.61 9.45 58.2 9.45 58.2 5.95 59.93 5.95 59.93 2.85 53.17 2.85 53.17 5.95 54.9 5.95 54.9 9.45 50.49 9.45 50.49 5.95 52.22 5.95 52.22 2.85 45.46 2.85 45.46 5.95 47.19 5.95 47.19 9.45 42.78 9.45 42.78 5.95 44.51 5.95 44.51 2.85 37.75 2.85 37.75 5.95 39.48 5.95 39.48 9.45 35.07 9.45 35.07 5.95 36.8 5.95 36.8 2.85 30.04 2.85 30.04 5.95 31.77 5.95 31.77 9.45 27.36 9.45 27.36 5.95 29.09 5.95 29.09 2.85 22.33 2.85 22.33 5.95 24.05 5.95 24.05 9.45 19.65 9.45 19.65 5.95 21.38 5.95 21.38 2.85 14.62 2.85 14.62 5.95 16.34 5.95 16.34 9.45 11.94 9.45 11.94 5.95 13.67 5.95 13.67 2.85 6.9 2.85 6.9 5.95 8.63 5.95 8.63 9.45 4.23 9.45 4.23 5.95 5.96 5.95 5.96 2.85 0.31 2.85 0.31 71.82 82.32 71.82 82.32 2.85 76.31 2.85"/><polygon class="cls-6" points="76.27 2.85 76.27 5.95 77.99 5.95 77.99 9.44 73.59 9.44 73.59 5.95 75.32 5.95 75.32 2.85 68.58 2.85 68.58 5.95 70.3 5.95 70.3 9.44 65.9 9.44 65.9 5.95 67.63 5.95 67.63 2.85 60.88 2.85 60.88 5.95 62.61 5.95 62.61 9.44 58.21 9.44 58.21 5.95 59.94 5.95 59.94 2.85 53.19 2.85 53.19 5.95 54.92 5.95 54.92 9.44 50.52 9.44 50.52 5.95 52.24 5.95 52.24 2.85 45.5 2.85 45.5 5.95 47.23 5.95 47.23 9.44 42.83 9.44 42.83 5.95 44.55 5.95 44.55 2.85 37.81 2.85 37.81 5.95 39.53 5.95 39.53 9.44 35.14 9.44 35.14 5.95 36.86 5.95 36.86 2.85 30.12 2.85 30.12 5.95 31.84 5.95 31.84 9.44 27.45 9.44 27.45 5.95 29.17 5.95 29.17 2.85 22.43 2.85 22.43 5.95 24.15 5.95 24.15 9.44 19.75 9.44 19.75 5.95 21.48 5.95 21.48 2.85 14.73 2.85 14.73 5.95 16.46 5.95 16.46 9.44 12.06 9.44 12.06 5.95 13.79 5.95 13.79 2.85 7.04 2.85 7.04 5.95 8.77 5.95 8.77 9.44 4.37 9.44 4.37 5.95 6.09 5.95 6.09 2.85 0.46 2.85 0.46 71.65 82.26 71.65 82.26 2.85 76.27 2.85"/><polygon class="cls-7" points="76.23 2.85 76.23 5.94 77.95 5.94 77.95 9.42 73.56 9.42 73.56 5.94 75.28 5.94 75.28 2.85 68.56 2.85 68.56 5.94 70.28 5.94 70.28 9.42 65.89 9.42 65.89 5.94 67.61 5.94 67.61 2.85 60.88 2.85 60.88 5.94 62.6 5.94 62.6 9.42 58.22 9.42 58.22 5.94 59.94 5.94 59.94 2.85 53.21 2.85 53.21 5.94 54.93 5.94 54.93 9.42 50.55 9.42 50.55 5.94 52.27 5.94 52.27 2.85 45.54 2.85 45.54 5.94 47.26 5.94 47.26 9.42 42.88 9.42 42.88 5.94 44.6 5.94 44.6 2.85 37.87 2.85 37.87 5.94 39.59 5.94 39.59 9.42 35.2 9.42 35.2 5.94 36.92 5.94 36.92 2.85 30.2 2.85 30.2 5.94 31.92 5.94 31.92 9.42 27.53 9.42 27.53 5.94 29.25 5.94 29.25 2.85 22.52 2.85 22.52 5.94 24.24 5.94 24.24 9.42 19.86 9.42 19.86 5.94 21.58 5.94 21.58 2.85 14.85 2.85 14.85 5.94 16.57 5.94 16.57 9.42 12.19 9.42 12.19 5.94 13.91 5.94 13.91 2.85 7.18 2.85 7.18 5.94 8.9 5.94 8.9 9.42 4.51 9.42 4.51 5.94 6.24 5.94 6.24 2.85 0.62 2.85 0.62 71.48 82.21 71.48 82.21 2.85 76.23 2.85"/><polygon class="cls-8" points="76.19 2.85 76.19 5.93 77.91 5.93 77.91 9.4 73.53 9.4 73.53 5.93 75.25 5.93 75.25 2.85 68.54 2.85 68.54 5.93 70.25 5.93 70.25 9.4 65.88 9.4 65.88 5.93 67.6 5.93 67.6 2.85 60.88 2.85 60.88 5.93 62.6 5.93 62.6 9.4 58.23 9.4 58.23 5.93 59.94 5.93 59.94 2.85 53.23 2.85 53.23 5.93 54.95 5.93 54.95 9.4 50.58 9.4 50.58 5.93 52.29 5.93 52.29 2.85 45.58 2.85 45.58 5.93 47.3 5.93 47.3 9.4 42.92 9.4 42.92 5.93 44.64 5.93 44.64 2.85 37.93 2.85 37.93 5.93 39.64 5.93 39.64 9.4 35.27 9.4 35.27 5.93 36.99 5.93 36.99 2.85 30.27 2.85 30.27 5.93 31.99 5.93 31.99 9.4 27.62 9.4 27.62 5.93 29.33 5.93 29.33 2.85 22.62 2.85 22.62 5.93 24.34 5.93 24.34 9.4 19.96 9.4 19.96 5.93 21.68 5.93 21.68 2.85 14.97 2.85 14.97 5.93 16.69 5.93 16.69 9.4 12.31 9.4 12.31 5.93 14.03 5.93 14.03 2.85 7.32 2.85 7.32 5.93 9.03 5.93 9.03 9.4 4.66 9.4 4.66 5.93 6.38 5.93 6.38 2.85 0.77 2.85 0.77 71.32 82.16 71.32 82.16 2.85 76.19 2.85"/><polygon class="cls-9" points="76.15 2.85 76.15 5.92 77.86 5.92 77.86 9.39 73.5 9.39 73.5 5.92 75.21 5.92 75.21 2.85 68.52 2.85 68.52 5.92 70.23 5.92 70.23 9.39 65.87 9.39 65.87 5.92 67.58 5.92 67.58 2.85 60.89 2.85 60.89 5.92 62.6 5.92 62.6 9.39 58.24 9.39 58.24 5.92 59.95 5.92 59.95 2.85 53.25 2.85 53.25 5.92 54.97 5.92 54.97 9.39 50.6 9.39 50.6 5.92 52.31 5.92 52.31 2.85 45.62 2.85 45.62 5.92 47.33 5.92 47.33 9.39 42.97 9.39 42.97 5.92 44.68 5.92 44.68 2.85 37.99 2.85 37.99 5.92 39.7 5.92 39.7 9.39 35.34 9.39 35.34 5.92 37.05 5.92 37.05 2.85 30.36 2.85 30.36 5.92 32.07 5.92 32.07 9.39 27.7 9.39 27.7 5.92 29.42 5.92 29.42 2.85 22.72 2.85 22.72 5.92 24.43 5.92 24.43 9.39 20.07 9.39 20.07 5.92 21.78 5.92 21.78 2.85 15.09 2.85 15.09 5.92 16.8 5.92 16.8 9.39 12.44 9.39 12.44 5.92 14.15 5.92 14.15 2.85 7.46 2.85 7.46 5.92 9.17 5.92 9.17 9.39 4.8 9.39 4.8 5.92 6.52 5.92 6.52 2.85 0.93 2.85 0.93 71.15 82.1 71.15 82.1 2.85 76.15 2.85"/><polygon class="cls-10" points="76.11 2.85 76.11 5.92 77.82 5.92 77.82 9.37 73.47 9.37 73.47 5.92 75.18 5.92 75.18 2.85 68.5 2.85 68.5 5.92 70.21 5.92 70.21 9.37 65.86 9.37 65.86 5.92 67.56 5.92 67.56 2.85 60.89 2.85 60.89 5.92 62.59 5.92 62.59 9.37 58.24 9.37 58.24 5.92 59.95 5.92 59.95 2.85 53.27 2.85 53.27 5.92 54.98 5.92 54.98 9.37 50.63 9.37 50.63 5.92 52.34 5.92 52.34 2.85 45.66 2.85 45.66 5.92 47.37 5.92 47.37 9.37 43.02 9.37 43.02 5.92 44.72 5.92 44.72 2.85 38.05 2.85 38.05 5.92 39.75 5.92 39.75 9.37 35.4 9.37 35.4 5.92 37.11 5.92 37.11 2.85 30.43 2.85 30.43 5.92 32.14 5.92 32.14 9.37 27.79 9.37 27.79 5.92 29.5 5.92 29.5 2.85 22.82 2.85 22.82 5.92 24.53 5.92 24.53 9.37 20.18 9.37 20.18 5.92 21.88 5.92 21.88 2.85 15.21 2.85 15.21 5.92 16.91 5.92 16.91 9.37 12.56 9.37 12.56 5.92 14.27 5.92 14.27 2.85 7.59 2.85 7.59 5.92 9.3 5.92 9.3 9.37 4.95 9.37 4.95 5.92 6.66 5.92 6.66 2.85 1.08 2.85 1.08 70.98 82.05 70.98 82.05 2.85 76.11 2.85"/><polygon class="cls-11" points="76.08 2.85 76.08 5.91 77.78 5.91 77.78 9.36 73.44 9.36 73.44 5.91 75.14 5.91 75.14 2.85 68.48 2.85 68.48 5.91 70.19 5.91 70.19 9.36 65.84 9.36 65.84 5.91 67.55 5.91 67.55 2.85 60.89 2.85 60.89 5.91 62.59 5.91 62.59 9.36 58.25 9.36 58.25 5.91 59.95 5.91 59.95 2.85 53.3 2.85 53.3 5.91 55 5.91 55 9.36 50.66 9.36 50.66 5.91 52.36 5.91 52.36 2.85 45.7 2.85 45.7 5.91 47.4 5.91 47.4 9.36 43.06 9.36 43.06 5.91 44.77 5.91 44.77 2.85 38.11 2.85 38.11 5.91 39.81 5.91 39.81 9.36 35.47 9.36 35.47 5.91 37.17 5.91 37.17 2.85 30.51 2.85 30.51 5.91 32.22 5.91 32.22 9.36 27.88 9.36 27.88 5.91 29.58 5.91 29.58 2.85 22.92 2.85 22.92 5.91 24.62 5.91 24.62 9.36 20.28 9.36 20.28 5.91 21.98 5.91 21.98 2.85 15.32 2.85 15.32 5.91 17.03 5.91 17.03 9.36 12.69 9.36 12.69 5.91 14.39 5.91 14.39 2.85 7.73 2.85 7.73 5.91 9.43 5.91 9.43 9.36 5.09 9.36 5.09 5.91 6.8 5.91 6.8 2.85 1.24 2.85 1.24 70.81 82 70.81 82 2.85 76.08 2.85"/><polygon class="cls-12" points="76.04 2.85 76.04 5.9 77.74 5.9 77.74 9.34 73.41 9.34 73.41 5.9 75.11 5.9 75.11 2.85 68.46 2.85 68.46 5.9 70.16 5.9 70.16 9.34 65.83 9.34 65.83 5.9 67.53 5.9 67.53 2.85 60.89 2.85 60.89 5.9 62.59 5.9 62.59 9.34 58.26 9.34 58.26 5.9 59.96 5.9 59.96 2.85 53.31 2.85 53.31 5.9 55.01 5.9 55.01 9.34 50.69 9.34 50.69 5.9 52.38 5.9 52.38 2.85 45.74 2.85 45.74 5.9 47.44 5.9 47.44 9.34 43.11 9.34 43.11 5.9 44.81 5.9 44.81 2.85 38.17 2.85 38.17 5.9 39.87 5.9 39.87 9.34 35.54 9.34 35.54 5.9 37.23 5.9 37.23 2.85 30.59 2.85 30.59 5.9 32.29 5.9 32.29 9.34 27.96 9.34 27.96 5.9 29.66 5.9 29.66 2.85 23.02 2.85 23.02 5.9 24.72 5.9 24.72 9.34 20.39 9.34 20.39 5.9 22.09 5.9 22.09 2.85 15.44 2.85 15.44 5.9 17.14 5.9 17.14 9.34 12.81 9.34 12.81 5.9 14.51 5.9 14.51 2.85 7.87 2.85 7.87 5.9 9.57 5.9 9.57 9.34 5.24 9.34 5.24 5.9 6.94 5.9 6.94 2.85 1.39 2.85 1.39 70.64 81.94 70.64 81.94 2.85 76.04 2.85"/><polygon class="cls-13" points="76 2.85 76 5.89 77.69 5.89 77.69 9.32 73.38 9.32 73.38 5.89 75.07 5.89 75.07 2.85 68.44 2.85 68.44 5.89 70.14 5.89 70.14 9.32 65.82 9.32 65.82 5.89 67.52 5.89 67.52 2.85 60.89 2.85 60.89 5.89 62.59 5.89 62.59 9.32 58.27 9.32 58.27 5.89 59.96 5.89 59.96 2.85 53.34 2.85 53.34 5.89 55.03 5.89 55.03 9.32 50.71 9.32 50.71 5.89 52.41 5.89 52.41 2.85 45.78 2.85 45.78 5.89 47.48 5.89 47.48 9.32 43.16 9.32 43.16 5.89 44.85 5.89 44.85 2.85 38.23 2.85 38.23 5.89 39.92 5.89 39.92 9.32 35.6 9.32 35.6 5.89 37.3 5.89 37.3 2.85 30.67 2.85 30.67 5.89 32.37 5.89 32.37 9.32 28.05 9.32 28.05 5.89 29.74 5.89 29.74 2.85 23.12 2.85 23.12 5.89 24.81 5.89 24.81 9.32 20.49 9.32 20.49 5.89 22.19 5.89 22.19 2.85 15.56 2.85 15.56 5.89 17.26 5.89 17.26 9.32 12.94 9.32 12.94 5.89 14.63 5.89 14.63 2.85 8.01 2.85 8.01 5.89 9.7 5.89 9.7 9.32 5.38 9.32 5.38 5.89 7.08 5.89 7.08 2.85 1.55 2.85 1.55 70.48 81.89 70.48 81.89 2.85 76 2.85"/><polygon class="cls-14" points="75.96 2.85 75.96 5.89 77.65 5.89 77.65 9.31 73.34 9.31 73.34 5.89 75.03 5.89 75.03 2.85 68.43 2.85 68.43 5.89 70.12 5.89 70.12 9.31 65.81 9.31 65.81 5.89 67.5 5.89 67.5 2.85 60.89 2.85 60.89 5.89 62.58 5.89 62.58 9.31 58.28 9.31 58.28 5.89 59.97 5.89 59.97 2.85 53.36 2.85 53.36 5.89 55.05 5.89 55.05 9.31 50.74 9.31 50.74 5.89 52.43 5.89 52.43 2.85 45.82 2.85 45.82 5.89 47.51 5.89 47.51 9.31 43.2 9.31 43.2 5.89 44.89 5.89 44.89 2.85 38.29 2.85 38.29 5.89 39.98 5.89 39.98 9.31 35.67 9.31 35.67 5.89 37.36 5.89 37.36 2.85 30.75 2.85 30.75 5.89 32.44 5.89 32.44 9.31 28.14 9.31 28.14 5.89 29.82 5.89 29.82 2.85 23.22 2.85 23.22 5.89 24.91 5.89 24.91 9.31 20.6 9.31 20.6 5.89 22.29 5.89 22.29 2.85 15.68 2.85 15.68 5.89 17.37 5.89 17.37 9.31 13.06 9.31 13.06 5.89 14.75 5.89 14.75 2.85 8.14 2.85 8.14 5.89 9.84 5.89 9.84 9.31 5.53 9.31 5.53 5.89 7.22 5.89 7.22 2.85 1.7 2.85 1.7 70.31 81.84 70.31 81.84 2.85 75.96 2.85"/><polygon class="cls-15" points="75.92 2.85 75.92 5.88 77.61 5.88 77.61 9.29 73.31 9.29 73.31 5.88 75 5.88 75 2.85 68.41 2.85 68.41 5.88 70.09 5.88 70.09 9.29 65.8 9.29 65.8 5.88 67.48 5.88 67.48 2.85 60.89 2.85 60.89 5.88 62.58 5.88 62.58 9.29 58.28 9.29 58.28 5.88 59.97 5.88 59.97 2.85 53.38 2.85 53.38 5.88 55.06 5.88 55.06 9.29 50.77 9.29 50.77 5.88 52.45 5.88 52.45 2.85 45.86 2.85 45.86 5.88 47.55 5.88 47.55 9.29 43.25 9.29 43.25 5.88 44.94 5.88 44.94 2.85 38.35 2.85 38.35 5.88 40.03 5.88 40.03 9.29 35.74 9.29 35.74 5.88 37.42 5.88 37.42 2.85 30.83 2.85 30.83 5.88 32.52 5.88 32.52 9.29 28.22 9.29 28.22 5.88 29.91 5.88 29.91 2.85 23.32 2.85 23.32 5.88 25 5.88 25 9.29 20.7 9.29 20.7 5.88 22.39 5.88 22.39 2.85 15.8 2.85 15.8 5.88 17.48 5.88 17.48 9.29 13.19 9.29 13.19 5.88 14.88 5.88 14.88 2.85 8.28 2.85 8.28 5.88 9.97 5.88 9.97 9.29 5.67 9.29 5.67 5.88 7.36 5.88 7.36 2.85 1.86 2.85 1.86 70.14 81.78 70.14 81.78 2.85 75.92 2.85"/><polygon class="cls-16" points="75.89 2.85 75.89 5.87 77.57 5.87 77.57 9.27 73.28 9.27 73.28 5.87 74.96 5.87 74.96 2.85 68.39 2.85 68.39 5.87 70.07 5.87 70.07 9.27 65.79 9.27 65.79 5.87 67.47 5.87 67.47 2.85 60.89 2.85 60.89 5.87 62.58 5.87 62.58 9.27 58.29 9.27 58.29 5.87 59.97 5.87 59.97 2.85 53.4 2.85 53.4 5.87 55.08 5.87 55.08 9.27 50.8 9.27 50.8 5.87 52.48 5.87 52.48 2.85 45.9 2.85 45.9 5.87 47.58 5.87 47.58 9.27 43.3 9.27 43.3 5.87 44.98 5.87 44.98 2.85 38.41 2.85 38.41 5.87 40.09 5.87 40.09 9.27 35.8 9.27 35.8 5.87 37.48 5.87 37.48 2.85 30.91 2.85 30.91 5.87 32.59 5.87 32.59 9.27 28.31 9.27 28.31 5.87 29.99 5.87 29.99 2.85 23.41 2.85 23.41 5.87 25.09 5.87 25.09 9.27 20.81 9.27 20.81 5.87 22.49 5.87 22.49 2.85 15.92 2.85 15.92 5.87 17.6 5.87 17.6 9.27 13.31 9.27 13.31 5.87 15 5.87 15 2.85 8.42 2.85 8.42 5.87 10.1 5.87 10.1 9.27 5.82 9.27 5.82 5.87 7.5 5.87 7.5 2.85 2.01 2.85 2.01 69.97 81.73 69.97 81.73 2.85 75.89 2.85"/><polygon class="cls-17" points="75.85 2.85 75.85 5.86 77.52 5.86 77.52 9.26 73.25 9.26 73.25 5.86 74.93 5.86 74.93 2.85 68.37 2.85 68.37 5.86 70.05 5.86 70.05 9.26 65.78 9.26 65.78 5.86 67.45 5.86 67.45 2.85 60.9 2.85 60.9 5.86 62.57 5.86 62.57 9.26 58.3 9.26 58.3 5.86 59.98 5.86 59.98 2.85 53.42 2.85 53.42 5.86 55.09 5.86 55.09 9.26 50.82 9.26 50.82 5.86 52.5 5.86 52.5 2.85 45.94 2.85 45.94 5.86 47.62 5.86 47.62 9.26 43.35 9.26 43.35 5.86 45.02 5.86 45.02 2.85 38.47 2.85 38.47 5.86 40.14 5.86 40.14 9.26 35.87 9.26 35.87 5.86 37.55 5.86 37.55 2.85 30.99 2.85 30.99 5.86 32.66 5.86 32.66 9.26 28.39 9.26 28.39 5.86 30.07 5.86 30.07 2.85 23.51 2.85 23.51 5.86 25.19 5.86 25.19 9.26 20.92 9.26 20.92 5.86 22.59 5.86 22.59 2.85 16.04 2.85 16.04 5.86 17.71 5.86 17.71 9.26 13.44 9.26 13.44 5.86 15.12 5.86 15.12 2.85 8.56 2.85 8.56 5.86 10.24 5.86 10.24 9.26 5.96 9.26 5.96 5.86 7.64 5.86 7.64 2.85 2.17 2.85 2.17 69.8 81.68 69.8 81.68 2.85 75.85 2.85"/><polygon class="cls-18" points="75.81 2.85 75.81 5.86 77.48 5.86 77.48 9.24 73.22 9.24 73.22 5.86 74.89 5.86 74.89 2.85 68.35 2.85 68.35 5.86 70.03 5.86 70.03 9.24 65.76 9.24 65.76 5.86 67.44 5.86 67.44 2.85 60.9 2.85 60.9 5.86 62.57 5.86 62.57 9.24 58.31 9.24 58.31 5.86 59.98 5.86 59.98 2.85 53.44 2.85 53.44 5.86 55.11 5.86 55.11 9.24 50.85 9.24 50.85 5.86 52.52 5.86 52.52 2.85 45.98 2.85 45.98 5.86 47.66 5.86 47.66 9.24 43.39 9.24 43.39 5.86 45.06 5.86 45.06 2.85 38.52 2.85 38.52 5.86 40.2 5.86 40.2 9.24 35.94 9.24 35.94 5.86 37.61 5.86 37.61 2.85 31.07 2.85 31.07 5.86 32.74 5.86 32.74 9.24 28.48 9.24 28.48 5.86 30.15 5.86 30.15 2.85 23.61 2.85 23.61 5.86 25.28 5.86 25.28 9.24 21.02 9.24 21.02 5.86 22.69 5.86 22.69 2.85 16.15 2.85 16.15 5.86 17.83 5.86 17.83 9.24 13.57 9.24 13.57 5.86 15.24 5.86 15.24 2.85 8.7 2.85 8.7 5.86 10.37 5.86 10.37 9.24 6.11 9.24 6.11 5.86 7.78 5.86 7.78 2.85 2.32 2.85 2.32 69.63 81.63 69.63 81.63 2.85 75.81 2.85"/><polygon class="cls-19" points="75.77 2.85 75.77 5.85 77.44 5.85 77.44 9.23 73.19 9.23 73.19 5.85 74.86 5.85 74.86 2.85 68.33 2.85 68.33 5.85 70 5.85 70 9.23 65.75 9.23 65.75 5.85 67.42 5.85 67.42 2.85 60.9 2.85 60.9 5.85 62.56 5.85 62.56 9.23 58.31 9.23 58.31 5.85 59.98 5.85 59.98 2.85 53.46 2.85 53.46 5.85 55.13 5.85 55.13 9.23 50.88 9.23 50.88 5.85 52.55 5.85 52.55 2.85 46.02 2.85 46.02 5.85 47.69 5.85 47.69 9.23 43.44 9.23 43.44 5.85 45.11 5.85 45.11 2.85 38.59 2.85 38.59 5.85 40.25 5.85 40.25 9.23 36 9.23 36 5.85 37.67 5.85 37.67 2.85 31.15 2.85 31.15 5.85 32.81 5.85 32.81 9.23 28.57 9.23 28.57 5.85 30.23 5.85 30.23 2.85 23.71 2.85 23.71 5.85 25.38 5.85 25.38 9.23 21.13 9.23 21.13 5.85 22.8 5.85 22.8 2.85 16.27 2.85 16.27 5.85 17.94 5.85 17.94 9.23 13.69 9.23 13.69 5.85 15.36 5.85 15.36 2.85 8.84 2.85 8.84 5.85 10.5 5.85 10.5 9.23 6.25 9.23 6.25 5.85 7.92 5.85 7.92 2.85 2.48 2.85 2.48 69.47 81.57 69.47 81.57 2.85 75.77 2.85"/><polygon class="cls-20" points="75.73 2.85 75.73 5.84 77.4 5.84 77.4 9.21 73.16 9.21 73.16 5.84 74.82 5.84 74.82 2.85 68.32 2.85 68.32 5.84 69.98 5.84 69.98 9.21 65.74 9.21 65.74 5.84 67.4 5.84 67.4 2.85 60.9 2.85 60.9 5.84 62.56 5.84 62.56 9.21 58.32 9.21 58.32 5.84 59.98 5.84 59.98 2.85 53.48 2.85 53.48 5.84 55.14 5.84 55.14 9.21 50.91 9.21 50.91 5.84 52.57 5.84 52.57 2.85 46.06 2.85 46.06 5.84 47.73 5.84 47.73 9.21 43.49 9.21 43.49 5.84 45.15 5.84 45.15 2.85 38.65 2.85 38.65 5.84 40.31 5.84 40.31 9.21 36.07 9.21 36.07 5.84 37.73 5.84 37.73 2.85 31.23 2.85 31.23 5.84 32.89 5.84 32.89 9.21 28.65 9.21 28.65 5.84 30.31 5.84 30.31 2.85 23.81 2.85 23.81 5.84 25.47 5.84 25.47 9.21 21.23 9.21 21.23 5.84 22.9 5.84 22.9 2.85 16.39 2.85 16.39 5.84 18.05 5.84 18.05 9.21 13.82 9.21 13.82 5.84 15.48 5.84 15.48 2.85 8.97 2.85 8.97 5.84 10.64 5.84 10.64 9.21 6.4 9.21 6.4 5.84 8.06 5.84 8.06 2.85 2.63 2.85 2.63 69.3 81.52 69.3 81.52 2.85 75.73 2.85"/><polygon class="cls-21" points="75.7 2.85 75.7 5.83 77.35 5.83 77.35 9.19 73.13 9.19 73.13 5.83 74.79 5.83 74.79 2.85 68.3 2.85 68.3 5.83 69.96 5.83 69.96 9.19 65.73 9.19 65.73 5.83 67.39 5.83 67.39 2.85 60.9 2.85 60.9 5.83 62.56 5.83 62.56 9.19 58.33 9.19 58.33 5.83 59.99 5.83 59.99 2.85 53.5 2.85 53.5 5.83 55.16 5.83 55.16 9.19 50.93 9.19 50.93 5.83 52.59 5.83 52.59 2.85 46.1 2.85 46.1 5.83 47.76 5.83 47.76 9.19 43.53 9.19 43.53 5.83 45.19 5.83 45.19 2.85 38.7 2.85 38.7 5.83 40.36 5.83 40.36 9.19 36.14 9.19 36.14 5.83 37.79 5.83 37.79 2.85 31.31 2.85 31.31 5.83 32.97 5.83 32.97 9.19 28.74 9.19 28.74 5.83 30.4 5.83 30.4 2.85 23.91 2.85 23.91 5.83 25.57 5.83 25.57 9.19 21.34 9.19 21.34 5.83 23 5.83 23 2.85 16.51 2.85 16.51 5.83 18.17 5.83 18.17 9.19 13.94 9.19 13.94 5.83 15.6 5.83 15.6 2.85 9.11 2.85 9.11 5.83 10.77 5.83 10.77 9.19 6.54 9.19 6.54 5.83 8.2 5.83 8.2 2.85 2.79 2.85 2.79 69.13 81.47 69.13 81.47 2.85 75.7 2.85"/><polygon class="cls-22" points="75.66 2.85 75.66 5.83 77.31 5.83 77.31 9.18 73.1 9.18 73.1 5.83 74.75 5.83 74.75 2.85 68.28 2.85 68.28 5.83 69.93 5.83 69.93 9.18 65.72 9.18 65.72 5.83 67.37 5.83 67.37 2.85 60.9 2.85 60.9 5.83 62.55 5.83 62.55 9.18 58.34 9.18 58.34 5.83 59.99 5.83 59.99 2.85 53.52 2.85 53.52 5.83 55.18 5.83 55.18 9.18 50.96 9.18 50.96 5.83 52.61 5.83 52.61 2.85 46.14 2.85 46.14 5.83 47.8 5.83 47.8 9.18 43.58 9.18 43.58 5.83 45.23 5.83 45.23 2.85 38.76 2.85 38.76 5.83 40.42 5.83 40.42 9.18 36.2 9.18 36.2 5.83 37.86 5.83 37.86 2.85 31.39 2.85 31.39 5.83 33.04 5.83 33.04 9.18 28.82 9.18 28.82 5.83 30.48 5.83 30.48 2.85 24.01 2.85 24.01 5.83 25.66 5.83 25.66 9.18 21.45 9.18 21.45 5.83 23.1 5.83 23.1 2.85 16.63 2.85 16.63 5.83 18.28 5.83 18.28 9.18 14.07 9.18 14.07 5.83 15.72 5.83 15.72 2.85 9.25 2.85 9.25 5.83 10.9 5.83 10.9 9.18 6.69 9.18 6.69 5.83 8.34 5.83 8.34 2.85 2.94 2.85 2.94 68.96 81.41 68.96 81.41 2.85 75.66 2.85"/><polygon class="cls-23" points="75.62 2.85 75.62 5.82 77.27 5.82 77.27 9.16 73.06 9.16 73.06 5.82 74.72 5.82 74.72 2.85 68.26 2.85 68.26 5.82 69.91 5.82 69.91 9.16 65.7 9.16 65.7 5.82 67.36 5.82 67.36 2.85 60.9 2.85 60.9 5.82 62.55 5.82 62.55 9.16 58.35 9.16 58.35 5.82 60 5.82 60 2.85 53.54 2.85 53.54 5.82 55.19 5.82 55.19 9.16 50.99 9.16 50.99 5.82 52.64 5.82 52.64 2.85 46.18 2.85 46.18 5.82 47.83 5.82 47.83 9.16 43.63 9.16 43.63 5.82 45.28 5.82 45.28 2.85 38.82 2.85 38.82 5.82 40.47 5.82 40.47 9.16 36.27 9.16 36.27 5.82 37.92 5.82 37.92 2.85 31.46 2.85 31.46 5.82 33.12 5.82 33.12 9.16 28.91 9.16 28.91 5.82 30.56 5.82 30.56 2.85 24.11 2.85 24.11 5.82 25.76 5.82 25.76 9.16 21.55 9.16 21.55 5.82 23.2 5.82 23.2 2.85 16.75 2.85 16.75 5.82 18.4 5.82 18.4 9.16 14.19 9.16 14.19 5.82 15.84 5.82 15.84 2.85 9.39 2.85 9.39 5.82 11.04 5.82 11.04 9.16 6.83 9.16 6.83 5.82 8.48 5.82 8.48 2.85 3.1 2.85 3.1 68.79 81.36 68.79 81.36 2.85 75.62 2.85"/><polygon class="cls-24" points="75.58 2.85 75.58 5.81 77.23 5.81 77.23 9.14 73.03 9.14 73.03 5.81 74.68 5.81 74.68 2.85 68.24 2.85 68.24 5.81 69.89 5.81 69.89 9.14 65.69 9.14 65.69 5.81 67.34 5.81 67.34 2.85 60.9 2.85 60.9 5.81 62.55 5.81 62.55 9.14 58.35 9.14 58.35 5.81 60 5.81 60 2.85 53.56 2.85 53.56 5.81 55.21 5.81 55.21 9.14 51.02 9.14 51.02 5.81 52.66 5.81 52.66 2.85 46.22 2.85 46.22 5.81 47.87 5.81 47.87 9.14 43.67 9.14 43.67 5.81 45.32 5.81 45.32 2.85 38.88 2.85 38.88 5.81 40.53 5.81 40.53 9.14 36.34 9.14 36.34 5.81 37.98 5.81 37.98 2.85 31.55 2.85 31.55 5.81 33.19 5.81 33.19 9.14 29 9.14 29 5.81 30.64 5.81 30.64 2.85 24.2 2.85 24.2 5.81 25.85 5.81 25.85 9.14 21.66 9.14 21.66 5.81 23.3 5.81 23.3 2.85 16.86 2.85 16.86 5.81 18.51 5.81 18.51 9.14 14.32 9.14 14.32 5.81 15.96 5.81 15.96 2.85 9.53 2.85 9.53 5.81 11.17 5.81 11.17 9.14 6.98 9.14 6.98 5.81 8.62 5.81 8.62 2.85 3.25 2.85 3.25 68.62 81.31 68.62 81.31 2.85 75.58 2.85"/><polygon class="cls-25" points="75.54 2.85 75.54 5.8 77.19 5.8 77.19 9.13 73 9.13 73 5.8 74.64 5.8 74.64 2.85 68.22 2.85 68.22 5.8 69.86 5.8 69.86 9.13 65.68 9.13 65.68 5.8 67.32 5.8 67.32 2.85 60.9 2.85 60.9 5.8 62.55 5.8 62.55 9.13 58.36 9.13 58.36 5.8 60 5.8 60 2.85 53.58 2.85 53.58 5.8 55.23 5.8 55.23 9.13 51.04 9.13 51.04 5.8 52.68 5.8 52.68 2.85 46.26 2.85 46.26 5.8 47.91 5.8 47.91 9.13 43.72 9.13 43.72 5.8 45.36 5.8 45.36 2.85 38.94 2.85 38.94 5.8 40.59 5.8 40.59 9.13 36.4 9.13 36.4 5.8 38.04 5.8 38.04 2.85 31.62 2.85 31.62 5.8 33.27 5.8 33.27 9.13 29.08 9.13 29.08 5.8 30.72 5.8 30.72 2.85 24.3 2.85 24.3 5.8 25.95 5.8 25.95 9.13 21.76 9.13 21.76 5.8 23.4 5.8 23.4 2.85 16.98 2.85 16.98 5.8 18.63 5.8 18.63 9.13 14.44 9.13 14.44 5.8 16.08 5.8 16.08 2.85 9.66 2.85 9.66 5.8 11.3 5.8 11.3 9.13 7.12 9.13 7.12 5.8 8.76 5.8 8.76 2.85 3.4 2.85 3.4 68.46 81.25 68.46 81.25 2.85 75.54 2.85"/><polygon class="cls-26" points="75.51 2.85 75.51 5.79 77.14 5.79 77.14 9.11 72.97 9.11 72.97 5.79 74.61 5.79 74.61 2.85 68.2 2.85 68.2 5.79 69.84 5.79 69.84 9.11 65.67 9.11 65.67 5.79 67.31 5.79 67.31 2.85 60.9 2.85 60.9 5.79 62.54 5.79 62.54 9.11 58.37 9.11 58.37 5.79 60.01 5.79 60.01 2.85 53.6 2.85 53.6 5.79 55.24 5.79 55.24 9.11 51.07 9.11 51.07 5.79 52.71 5.79 52.71 2.85 46.3 2.85 46.3 5.79 47.94 5.79 47.94 9.11 43.77 9.11 43.77 5.79 45.41 5.79 45.41 2.85 39 2.85 39 5.79 40.64 5.79 40.64 9.11 36.47 9.11 36.47 5.79 38.1 5.79 38.1 2.85 31.7 2.85 31.7 5.79 33.34 5.79 33.34 9.11 29.17 9.11 29.17 5.79 30.8 5.79 30.8 2.85 24.4 2.85 24.4 5.79 26.04 5.79 26.04 9.11 21.87 9.11 21.87 5.79 23.5 5.79 23.5 2.85 17.1 2.85 17.1 5.79 18.74 5.79 18.74 9.11 14.57 9.11 14.57 5.79 16.2 5.79 16.2 2.85 9.8 2.85 9.8 5.79 11.44 5.79 11.44 9.11 7.27 9.11 7.27 5.79 8.9 5.79 8.9 2.85 3.56 2.85 3.56 68.29 81.2 68.29 81.2 2.85 75.51 2.85"/><polygon class="cls-27" points="75.47 2.85 75.47 5.79 77.1 5.79 77.1 9.1 72.94 9.1 72.94 5.79 74.57 5.79 74.57 2.85 68.19 2.85 68.19 5.79 69.82 5.79 69.82 9.1 65.66 9.1 65.66 5.79 67.29 5.79 67.29 2.85 60.91 2.85 60.91 5.79 62.54 5.79 62.54 9.1 58.38 9.1 58.38 5.79 60.01 5.79 60.01 2.85 53.63 2.85 53.63 5.79 55.26 5.79 55.26 9.1 51.1 9.1 51.1 5.79 52.73 5.79 52.73 2.85 46.34 2.85 46.34 5.79 47.98 5.79 47.98 9.1 43.82 9.1 43.82 5.79 45.45 5.79 45.45 2.85 39.06 2.85 39.06 5.79 40.7 5.79 40.7 9.1 36.54 9.1 36.54 5.79 38.17 5.79 38.17 2.85 31.78 2.85 31.78 5.79 33.41 5.79 33.41 9.1 29.25 9.1 29.25 5.79 30.89 5.79 30.89 2.85 24.5 2.85 24.5 5.79 26.13 5.79 26.13 9.1 21.97 9.1 21.97 5.79 23.61 5.79 23.61 2.85 17.22 2.85 17.22 5.79 18.85 5.79 18.85 9.1 14.69 9.1 14.69 5.79 16.32 5.79 16.32 2.85 9.94 2.85 9.94 5.79 11.57 5.79 11.57 9.1 7.41 9.1 7.41 5.79 9.04 5.79 9.04 2.85 3.71 2.85 3.71 68.12 81.14 68.12 81.14 2.85 75.47 2.85"/><polygon class="cls-28" points="75.43 2.85 75.43 5.78 77.06 5.78 77.06 9.08 72.91 9.08 72.91 5.78 74.54 5.78 74.54 2.85 68.17 2.85 68.17 5.78 69.8 5.78 69.8 9.08 65.65 9.08 65.65 5.78 67.28 5.78 67.28 2.85 60.91 2.85 60.91 5.78 62.53 5.78 62.53 9.08 58.39 9.08 58.39 5.78 60.01 5.78 60.01 2.85 53.65 2.85 53.65 5.78 55.27 5.78 55.27 9.08 51.12 9.08 51.12 5.78 52.75 5.78 52.75 2.85 46.38 2.85 46.38 5.78 48.01 5.78 48.01 9.08 43.86 9.08 43.86 5.78 45.49 5.78 45.49 2.85 39.12 2.85 39.12 5.78 40.75 5.78 40.75 9.08 36.6 9.08 36.6 5.78 38.23 5.78 38.23 2.85 31.86 2.85 31.86 5.78 33.49 5.78 33.49 9.08 29.34 9.08 29.34 5.78 30.97 5.78 30.97 2.85 24.6 2.85 24.6 5.78 26.23 5.78 26.23 9.08 22.08 9.08 22.08 5.78 23.71 5.78 23.71 2.85 17.34 2.85 17.34 5.78 18.97 5.78 18.97 9.08 14.82 9.08 14.82 5.78 16.45 5.78 16.45 2.85 10.08 2.85 10.08 5.78 11.71 5.78 11.71 9.08 7.56 9.08 7.56 5.78 9.18 5.78 9.18 2.85 3.87 2.85 3.87 67.95 81.09 67.95 81.09 2.85 75.43 2.85"/><polygon class="cls-29" points="75.39 2.85 75.39 5.77 77.02 5.77 77.02 9.06 72.88 9.06 72.88 5.77 74.5 5.77 74.5 2.85 68.15 2.85 68.15 5.77 69.77 5.77 69.77 9.06 65.64 9.06 65.64 5.77 67.26 5.77 67.26 2.85 60.91 2.85 60.91 5.77 62.53 5.77 62.53 9.06 58.39 9.06 58.39 5.77 60.02 5.77 60.02 2.85 53.67 2.85 53.67 5.77 55.29 5.77 55.29 9.06 51.15 9.06 51.15 5.77 52.77 5.77 52.77 2.85 46.42 2.85 46.42 5.77 48.05 5.77 48.05 9.06 43.91 9.06 43.91 5.77 45.53 5.77 45.53 2.85 39.18 2.85 39.18 5.77 40.81 5.77 40.81 9.06 36.67 9.06 36.67 5.77 38.29 5.77 38.29 2.85 31.94 2.85 31.94 5.77 33.56 5.77 33.56 9.06 29.43 9.06 29.43 5.77 31.05 5.77 31.05 2.85 24.7 2.85 24.7 5.77 26.32 5.77 26.32 9.06 22.18 9.06 22.18 5.77 23.81 5.77 23.81 2.85 17.46 2.85 17.46 5.77 19.08 5.77 19.08 9.06 14.94 9.06 14.94 5.77 16.57 5.77 16.57 2.85 10.21 2.85 10.21 5.77 11.84 5.77 11.84 9.06 7.7 9.06 7.7 5.77 9.32 5.77 9.32 2.85 4.02 2.85 4.02 67.78 81.04 67.78 81.04 2.85 75.39 2.85"/></g><polygon class="cls-30" points="76.68 2.85 76.68 5.77 78.33 5.77 78.33 9.06 74.11 9.06 74.11 5.77 75.77 5.77 75.77 2.85 69.3 2.85 69.3 5.77 70.96 5.77 70.96 9.06 66.74 9.06 66.74 5.77 68.4 5.77 68.4 2.85 61.93 2.85 61.93 5.77 63.58 5.77 63.58 9.06 59.37 9.06 59.37 5.77 61.02 5.77 61.02 2.85 54.56 2.85 54.56 5.77 56.21 5.77 56.21 9.06 52 9.06 52 5.77 53.65 5.77 53.65 2.85 47.19 2.85 47.19 5.77 48.84 5.77 48.84 9.06 44.63 9.06 44.63 5.77 46.28 5.77 46.28 2.85 39.81 2.85 39.81 5.77 41.47 5.77 41.47 9.06 37.26 9.06 37.26 5.77 38.91 5.77 38.91 2.85 32.44 2.85 32.44 5.77 34.1 5.77 34.1 9.06 29.88 9.06 29.88 5.77 31.54 5.77 31.54 2.85 25.07 2.85 25.07 5.77 26.72 5.77 26.72 9.06 22.51 9.06 22.51 5.77 24.16 5.77 24.16 2.85 17.7 2.85 17.7 5.77 19.35 5.77 19.35 9.06 15.14 9.06 15.14 5.77 16.79 5.77 16.79 2.85 10.33 2.85 10.33 5.77 11.98 5.77 11.98 9.06 7.77 9.06 7.77 5.77 9.42 5.77 9.42 2.85 4.02 2.85 4.02 67.78 82.42 67.78 82.42 2.85 76.68 2.85"/><g id="green_2" data-name="green 2"><polygon class="cls-31" points="25.62 6.49 26.19 5.65 25.63 4.81 26.21 3.85 25.64 3 26.22 2.29 25.66 1.44 26.23 0.84 25.67 0 64.09 0.04 63.41 0.94 64.08 1.54 63.4 2.56 64.07 3.28 63.42 4.06 64.05 4.79 63.45 5.68 64.04 6.53 25.62 6.49"/><g class="cls-32"><polygon class="cls-33" points="25.63 6.8 26.21 5.96 25.64 5.12 26.22 4.16 25.66 3.31 26.23 2.59 25.67 1.75 26.24 1.15 25.68 0.31 64.1 0.34 63.42 1.24 64.09 1.85 63.41 2.87 64.08 3.59 63.43 4.37 64.07 5.09 63.46 5.99 64.06 6.84 25.63 6.8"/><path class="cls-34" d="M64.1,6.86h0l-38.47,0L26.18,6l-.56-.84h0l.57-1-.56-.85h0l.57-.71-.56-.84h0l.56-.59L25.63.29h.05l38.47,0-.7.92.67.6v0l-.67,1,.67.73h0l-.64.77.64.72h0l-.6.89ZM25.68,6.78,64,6.82,63.43,6h0L64,5.09l-.64-.72h0L64,3.59l-.66-.72h0l.68-1-.67-.6v0l.65-.86L25.72.33l.55.82h0l-.56.59.56.84h0l-.56.71.56.84h0l-.57,1,.57.85h0Z"/></g></g></g></g></svg>